<svg width="24.000000" height="24.000000" viewBox="0 0 24 24" fill="none" xmlns="http://www.w3.org/2000/svg" xmlns:xlink="http://www.w3.org/1999/xlink">
	<desc>
			Created with Pixso.
	</desc>
	<defs/>
	<path id="Path" d="M-1 0L23 0L23 24L-1 24L-1 0Z" fill="#FFFFFF" fill-opacity="0" fill-rule="evenodd"/>
	<path id="Path" d="M23 0L23 24L-1 24L-1 0L23 0Z" stroke="#FFFFFF" stroke-opacity="0" stroke-width="0.000000"/>
	<path id="Path" d="M-1 0L23 0L23 24L-1 24L-1 0Z" fill="#FFFFFF" fill-opacity="0" fill-rule="evenodd"/>
	<path id="Path" d="M23 0L23 24L-1 24L-1 0L23 0Z" stroke="#FFFFFF" stroke-opacity="0" stroke-width="0.000000"/>
	<path id="Path" d="M19.97 1.91L2.02 1.91C1.41 1.91 0.92 2.41 0.92 3.02L0.92 20.97C0.92 21.26 1.03 21.54 1.24 21.75C1.45 21.96 1.73 22.07 2.02 22.07L11.68 22.07L11.68 14.26L9.06 14.26L9.06 11.24L11.68 11.24L11.68 8.97C11.57 7.89 11.94 6.82 12.7 6.04C13.45 5.27 14.51 4.86 15.59 4.94C16.38 4.93 17.16 4.97 17.94 5.06L17.94 7.78L16.34 7.78C15.07 7.78 14.83 8.39 14.83 9.26L14.83 11.21L17.85 11.21L17.46 14.23L14.83 14.23L14.83 22.07L19.97 22.07C20.26 22.07 20.54 21.96 20.75 21.75C20.96 21.54 21.08 21.26 21.08 20.97L21.08 3.02C21.08 2.73 20.96 2.45 20.75 2.24C20.54 2.03 20.26 1.91 19.97 1.91Z" fill="#F3F3F3" fill-opacity="1.000000" fill-rule="evenodd"/>
</svg>
