<svg width="21" height="21" viewBox="0 0 21 21" fill="none" xmlns="http://www.w3.org/2000/svg">
<path fill-rule="evenodd" clip-rule="evenodd" d="M16.1072 3.633C15.5976 3.633 15.1382 3.93999 14.9432 4.41082C14.7481 4.88165 14.8559 5.4236 15.2163 5.78395C15.5766 6.14431 16.1186 6.25211 16.5894 6.05709C17.0603 5.86206 17.3672 5.40262 17.3672 4.893C17.3672 4.19712 16.8031 3.633 16.1072 3.633ZM20.9372 6.174C20.9168 5.30281 20.7537 4.44087 20.4542 3.6225C20.1873 2.92229 19.7717 2.28824 19.2362 1.764C18.7163 1.2258 18.0808 0.812885 17.3777 0.5565C16.5615 0.247969 15.6986 0.0810706 14.8262 0.063C13.7132 0 13.3562 0 10.5002 0C7.64424 0 7.28724 0 6.17424 0.063C5.30185 0.0810706 4.43895 0.247969 3.62274 0.5565C2.921 0.815481 2.28602 1.22804 1.76424 1.764C1.22604 2.28394 0.813129 2.91946 0.556744 3.6225C0.248213 4.43871 0.0813147 5.30161 0.0632441 6.174C0.000244141 7.287 0.000244141 7.644 0.000244141 10.5C0.000244141 13.356 0.000244141 13.713 0.0632441 14.826C0.0813147 15.6984 0.248213 16.5613 0.556744 17.3775C0.813129 18.0805 1.22604 18.7161 1.76424 19.236C2.28602 19.772 2.921 20.1845 3.62274 20.4435C4.43895 20.752 5.30185 20.9189 6.17424 20.937C7.28724 21 7.64424 21 10.5002 21C13.3562 21 13.7132 21 14.8262 20.937C15.6986 20.9189 16.5615 20.752 17.3777 20.4435C18.0808 20.1871 18.7163 19.7742 19.2362 19.236C19.7741 18.7137 20.19 18.0791 20.4542 17.3775C20.7537 16.5591 20.9168 15.6972 20.9372 14.826C20.9372 13.713 21.0002 13.356 21.0002 10.5C21.0002 7.644 21.0002 7.287 20.9372 6.174ZM19.0472 14.7C19.0396 15.3665 18.9189 16.0269 18.6902 16.653C18.5226 17.11 18.2533 17.5228 17.9027 17.8605C17.5622 18.2075 17.1501 18.4763 16.6952 18.648C16.0691 18.8766 15.4088 18.9974 14.7422 19.005C13.6922 19.0575 13.3037 19.068 10.5422 19.068C7.78074 19.068 7.39224 19.068 6.34224 19.005C5.65018 19.018 4.96107 18.9114 4.30524 18.69C3.87031 18.5095 3.47717 18.2414 3.15024 17.9025C2.80174 17.5652 2.53583 17.152 2.37324 16.695C2.11689 16.0599 1.97471 15.3845 1.95324 14.7C1.95324 13.65 1.89024 13.2615 1.89024 10.5C1.89024 7.7385 1.89024 7.35 1.95324 6.3C1.95795 5.61861 2.08234 4.94334 2.32074 4.305C2.50559 3.86181 2.78932 3.46674 3.15024 3.15C3.46925 2.78898 3.8635 2.50225 4.30524 2.31C4.94527 2.07905 5.61984 1.95833 6.30024 1.953C7.35024 1.953 7.73874 1.89 10.5002 1.89C13.2617 1.89 13.6502 1.89 14.7002 1.953C15.3668 1.96064 16.0271 2.08136 16.6532 2.31C17.1304 2.48709 17.5587 2.77499 17.9027 3.15C18.2468 3.47254 18.5157 3.86687 18.6902 4.305C18.9236 4.94438 19.0444 5.61937 19.0472 6.3C19.0997 7.35 19.1102 7.7385 19.1102 10.5C19.1102 13.2615 19.0997 13.65 19.0472 14.7ZM10.5002 5.1135C7.52674 5.1193 5.12039 7.53348 5.12425 10.507C5.12811 13.4805 7.54072 15.8884 10.5142 15.8865C13.4878 15.8846 15.8972 13.4735 15.8972 10.5C15.9001 9.06873 15.332 7.69543 14.319 6.68435C13.3059 5.67328 11.9315 5.10791 10.5002 5.1135ZM10.5002 13.9965C8.56918 13.9965 7.00374 12.4311 7.00374 10.5C7.00374 8.56894 8.56918 7.0035 10.5002 7.0035C12.4313 7.0035 13.9967 8.56894 13.9967 10.5C13.9967 11.4273 13.6284 12.3167 12.9726 12.9724C12.3169 13.6281 11.4276 13.9965 10.5002 13.9965Z" fill="#F3F3F3"/>
</svg>
