<svg width="21" height="21" viewBox="0 0 21 21" fill="none" xmlns="http://www.w3.org/2000/svg">
<path fill-rule="evenodd" clip-rule="evenodd" d="M19.3937 -9.71376e-05H1.60673C1.20293 -0.00570526 0.813441 0.149346 0.52397 0.430941C0.234499 0.712535 0.0687637 1.0976 0.0632324 1.5014V19.4984C0.0687637 19.9022 0.234499 20.2873 0.52397 20.5689C0.813441 20.8505 1.20293 21.0055 1.60673 20.9999H19.3937C19.7975 21.0055 20.187 20.8505 20.4765 20.5689C20.766 20.2873 20.9317 19.9022 20.9372 19.4984V1.5014C20.9317 1.0976 20.766 0.712535 20.4765 0.430941C20.187 0.149346 19.7975 -0.00570526 19.3937 -9.71376e-05ZM6.39473 17.5769H3.24473V8.1269H6.39473V17.5769ZM4.81973 6.8039C3.91509 6.8039 3.18173 6.07055 3.18173 5.1659C3.18173 4.26126 3.91509 3.5279 4.81973 3.5279C5.44922 3.45651 6.06393 3.75217 6.40111 4.28851C6.73829 4.82485 6.73829 5.50696 6.40111 6.0433C6.06393 6.57963 5.44922 6.87529 4.81973 6.8039ZM17.7557 17.5769H14.6057V12.5054C14.6057 11.2349 14.1542 10.4054 13.0097 10.4054C12.2843 10.4107 11.6389 10.8675 11.3927 11.5499C11.3106 11.7967 11.275 12.0566 11.2877 12.3164V17.5664H8.13773C8.13773 17.5664 8.13773 8.9774 8.13773 8.1164H11.2877V9.4499C11.8709 8.43798 12.9661 7.83179 14.1332 7.8749C16.2332 7.8749 17.7557 9.2294 17.7557 12.1379V17.5769Z" fill="#F3F3F3"/>
</svg>
