<svg width="25.000000" height="25.000000" viewBox="0 0 25 25" fill="none" xmlns="http://www.w3.org/2000/svg" xmlns:xlink="http://www.w3.org/1999/xlink">
	<desc>
			Created with Pixso.
	</desc>
	<defs/>
	<path id="Path" d="M-1 0L24 0L24 25L-1 25L-1 0Z" fill="#FFFFFF" fill-opacity="0" fill-rule="evenodd"/>
	<path id="Path" d="M24 0L24 25L-1 25L-1 0L24 0Z" stroke="#FFFFFF" stroke-opacity="0" stroke-width="0.000000"/>
	<path id="Path" d="M-1 0L24 0L24 25L-1 25L-1 0Z" fill="#FFFFFF" fill-opacity="0" fill-rule="evenodd"/>
	<path id="Path" d="M24 0L24 25L-1 25L-1 0L24 0Z" stroke="#FFFFFF" stroke-opacity="0" stroke-width="0.000000"/>
	<path id="Path" d="M22 5.95C21.21 6.29 20.37 6.52 19.52 6.63C20.42 6.09 21.09 5.23 21.42 4.23C20.57 4.74 19.64 5.09 18.68 5.29C17.35 3.84 15.21 3.47 13.48 4.4C11.75 5.33 10.87 7.32 11.33 9.23C7.86 9.06 4.64 7.41 2.45 4.7C2.08 5.37 1.88 6.12 1.88 6.89C1.87 8.34 2.59 9.69 3.79 10.49C3.1 10.47 2.43 10.29 1.84 9.95L1.84 10C1.85 12.06 3.29 13.83 5.3 14.23C4.93 14.34 4.54 14.4 4.15 14.41C3.87 14.4 3.6 14.38 3.34 14.33C3.9 16.09 5.52 17.29 7.36 17.33C5.84 18.53 3.97 19.18 2.05 19.19C1.69 19.19 1.34 19.17 1 19.12C2.96 20.4 5.26 21.08 7.6 21.08C10.87 21.11 14.01 19.82 16.32 17.51C18.63 15.19 19.92 12.03 19.9 8.75C19.9 8.57 19.9 8.38 19.9 8.19C20.72 7.57 21.43 6.81 22 5.95Z" fill="#F3F3F3" fill-opacity="1.000000" fill-rule="evenodd"/>
</svg>
